<svg version="1.1" viewBox="0 0 2048 1365" width="2250" height="1500" xmlns="http://www.w3.org/2000/svg">
<path transform="translate(0)" d="m0 0h2048v1365h-2048z" fill="#211E20"/>
<path transform="translate(1095,524)" d="m0 0h12l22 2 25 5 24 8 27 13 19 12 13 11 10 9 11 12 13 18 11 19 12 25 5 13v4l-131 57-147 64-30 13-41 18-16 7-3-1-13-25-9-25-5-21-3-25v-20l2-19 5-24 7-21 8-18 8-15 10-15 11-14 12-13 8-7 15-12 18-11 19-9 24-8 24-5z" fill="#FEFEFE"/>
<path transform="translate(469,349)" d="m0 0h37l23 2 25 4 28 7 27 9 25 11 19 10 21 13 19 14 13 11 8 7 9 8 5 5 9 10 12 14 12 16 13 20 10 18 12 25 9 24 7 24 3 15-6 2-127 26h-2l-7-24-8-20-10-19-11-16-9-11-12-13-14-12-17-12-20-11-23-9-23-6-21-3h-34l-21 3-20 5-5 1-15-44-14-43-14-41v-3l15-5 25-6 24-4z" fill="#FAC607"/>
<path transform="translate(680,722)" d="m0 0 13 2 117 24 5 2-5 22-11 33-9 20-8 16-12 21-12 17-10 13-12 14-15 16-15 14-14 11-15 11-17 11-18 10-25 12-25 9-20 6-28 6-22 3-10 1h-48l-33-4-28-6-20-6-1-3 42-126 1-2 10 2 17 4 15 2 13 1h15l22-2 24-5 25-9 16-8 12-7 14-10 13-11 14-14 11-14 10-15 8-15 9-22z" fill="#EF3120"/>
<path transform="translate(266,433)" d="m0 0 7 6 12 14 11 12 7 8 9 10 9 11 14 15 7 8 12 14 4 5-18 18-11 14-12 19-11 23-7 21-5 24-1 9v38l4 24 6 21 8 20 11 20 10 14 8 10 12 13 6 5-6 8-12 13-7 8-9 10-7 8-12 14-12 13-9 11-13 14-3 4-5-2-24-24-9-11-12-15-14-21-12-21-13-27-10-28-6-21-5-24-3-25-1-15v-31l2-24 4-26 8-32 10-28 11-24 12-22 16-24 10-13 12-14 14-15z" fill="#38A7E4"/>
<path transform="translate(1341,438)" d="m0 0h87v390l5 1 32 13 22 9 1 3-13 31-20 47-5-1-46-19-23-10-11-7-12-12-7-11-5-11-4-16-1-9z" fill="#FEFEFE"/>
<path transform="translate(1560,576)" d="m0 0 7 6 27 30 7 8 9 10 10 11 2 5-9 9-9 12-9 16-6 18-3 16v22l3 17 5 15 10 19 9 11 6 7 3 2-2 5-14 15-7 8-10 11-7 8-11 12-7 8-2 3-4-1-18-18-15-20-11-19-8-17-7-21-5-22-2-17v-34l3-22 5-20 8-22 10-20 12-18 11-14 13-14z" fill="#FEFEFE"/>
<path transform="translate(1678,525)" d="m0 0h35l21 3 21 5 19 7 21 10 19 12 17 14 9 8 7 8 8 9 12 17 10 17 9 20 7 22 2 11-12 3-75 15h-5l-5-17-8-17-9-13-11-12-13-10-14-8-16-6-13-3-8-1h-21l-17 3-8 1-14-41-15-45v-2l16-5 22-4z" fill="#FEFEFE"/>
<path transform="translate(1803,751)" d="m0 0 10 1 58 12 24 5-3 14-7 21-7 16-11 19-11 15-11 13-15 15-14 11-15 10-23 12-21 8-24 6-24 3h-27l-24-3-24-6-3-1 2-9 26-78 1-2 19 4 10 1h13l15-2 15-4 16-7 14-9 12-11 10-11 9-15 5-11z" fill="#FEFEFE"/>
<path transform="translate(1197,791)" d="m0 0 11 6 10 7 54 36-1 4-10 14-11 12-12 12-13 10-17 11-17 9-20 8-19 6-20 4-20 2h-17l-20-2-23-5-21-7-25-12-14-9-1-2 29-44 7-10 8-12 5-7 9 6 12 7 18 6 17 2 17-1 15-3 20-7 17-9 13-10 11-11z" fill="#FDFEFE"/>
<path transform="translate(1093,610)" d="m0 0h18l16 3 13 5 14 8 10 8 10 9 4 6-32 14-58 25-70 30-24 10-1-1v-22l3-17 5-15 8-15 10-13 7-7 15-11 19-9 16-5z" fill="#211E20"/>
</svg>
