<?xml version="1.0" encoding="UTF-8"?>
<svg version="1.1" viewBox="0 0 1600 1066" width="600" height="400" xmlns="http://www.w3.org/2000/svg">
<path transform="translate(0)" d="m0 0h1600v1066h-1600z" fill="#FEFDFD"/>
<path transform="translate(361,107)" d="m0 0h222v708l-1 18-4 21-6 17-8 16-10 15-12 14-11 10-16 11-17 9-24 8-15 3-11 1-44 1h-82l-89-1v-299l8 1 41 8 40 5 25 2 26 1h14l32-2 29-4 25-6 16-6 16-8 14-10 9-8 10-14 7-14 5-16 2-12 1-180-120 1-1 168-2 14-5 15-6 10-9 10-11 8-15 6-14 3h-33l-26-4-21-5-24-8-28-12-4-2v-368l4-20 6-18 11-21 10-14 13-14 11-9 13-9 17-9 17-6 18-4z" fill="#055096"/>
<path transform="translate(755,107)" d="m0 0h221l-1 725-3 20-7 21-11 21-9 12-9 10-10 10-15 11-21 11-21 7-14 3-7 1h-222l-1-327 5 2 13 9 14 8 19 8 23 7 24 5 22 3 25 2h53l36-3 39-6 34-7 3-1 1-59-27 12-22 8-28 7-29 4h-32l-20-3-18-6-14-7-10-8-7-6-9-12-7-14-5-17-2-12v-26l4-20 6-15 9-15 11-11 14-10 18-8 22-5 9-1h31l25 3 23 5 27 9 25 11 6 3-1-59-31-7-36-6-28-3-13-1h-55l-36 3-29 5-22 6-22 8-19 10-17 12h-1v-200l4-22 5-15 8-17 11-17 8-10h2l2-4 12-11 17-12 23-11 17-5z" fill="#D50336"/>
<path transform="translate(1145,107)" d="m0 0h221v724l-3 20-7 21-11 21-9 12-9 10-11 11-17 12-16 8-18 7-18 4-8 1-181 1h-29l-12-1v-288l1-1 234-1 20-4 14-5 14-8 12-11 8-12 5-14 1-5v-21l-4-14-8-13-7-8-13-9-15-7-13-4-10-2-10-1 1-2 17-4 15-7 11-7 9-10 8-16 3-12v-16l-3-14-6-12-9-11-13-9-15-7-18-4-7-1-28-1h-193v-162l3-19 8-24 9-17 12-17 7-7 4-5 8-7 14-10 14-8 13-6 22-6z" fill="#289541"/>
<path transform="translate(625,632)" d="m0 0 5 2 13 9 14 8 19 8 23 7 24 5 22 3 25 2h63v1l-9 2-47 1-1 2-5 1 3 3 12 6 3 5-1 6 1 1v19l-1 4h2l4 8-2 9h-2l2 17 1 1 1 10-3 6-4 2 1 5 3 1 1 4-1 8 1 7v19l1 19 2 8v20l1 12-1 11 1 5-2 10v3h2v-2h2l1 10-1 6 4 4 1 8-5 2-1 3-3 4-1-1-1 4 6 2 19 4 4 2-4 1h-191z" fill="#942533"/>
<path transform="translate(755,107)" d="m0 0h116v1l-59 1-20 1-9 1-7 2h-6v3l12 2 5 3h2l5 6 4 2-1 8 1 2v6l-1 5 1 3v7l-3 5 1 11v12l-1 9-3 5v12l-3 4-1 4 2 1-1 6v4l-2 1v6l1 2-2 9-1 12 1 2h-2v8l2 5-1 1v8l2 16 2 5v10l3 3 1 8-4 2v2l2 1-1 4h2l1 6v8l3 4 2 10-1 10-9 2 3 1 2 4 2-1 14 4 9 2v1l-46 1-36 3-29 5-22 6-22 8-19 10-17 12h-1v-200l4-22 5-15 8-17 11-17 8-10h2l2-4 12-11 17-12 23-11 17-5z" fill="#942533"/>
<path transform="translate(799,435)" d="m0 0h31l25 3 23 5 27 9 25 11-3 1-15-6-8-3-6-1-3 3 1 3 3-1 3 2v2h3v2l20 8 1 2-2 5h-2v4l-2 5-2 11v1l2 4 2 1-1 13 2 1-2 7 1 6-1 5 1 3h-2v8l-3 9h-2l4 8v11l3 9-3 3h-2v2l-6 5h-2l-2 4-6 5-5 1v2l-11 4-5 3h-4v2h-2l1 2 8 1-3 2-21 5-29 4h-32l-20-3-18-6-14-7-10-8-7-6-9-12-7-14-5-17-2-12v-26l4-20 6-15 9-15 11-11 14-10 18-8 22-5z" fill="#C11432"/>
<path transform="translate(871,107)" d="m0 0h105v27h-1v-26l-65 1-17 2-5 2 4 4 15 3 11 3 1 3h-2l-2 5-1 3 4 4 1 6-2 4-2 1-2 6-1 7-3 1-1 4h2l1-3 2 7 4 2-3 3v7l1 2-2 5-3 2v12l1 3-1 3h-2v6l-1 3h-2l-1 7-1 14v19l1 31 1 4-1 1 3 16-3 9 2 4-1 5-3 7v8l-1 8h2l1 7 5 1 1 5-1 2 9 4 1 4-5 2-3 3-9 2-9 3-7-1-4 1-15 3h-13l-1 2 12 1 16 2 9 2 31 6 1 2-9-1-32-6-30-4-33-3-9-2-14-4h-3l-1-4-3 1v-2l5-2h4l-1-4 1-8-3-9-2-5v-12h-2l-1-7 1-2h3l-3-9-2-2v-10l-2-7-2-14v-8-3l-1-4 1-10 1-11 2-10-1-3 1-5h2l-1-7v-4l1-6 2-4v-10l3-5 1-17v-10l-1-5 3-5v-7l-1-7 1-1v-6l-1-4 1-6-5-3-3-3v-2l-3 1-5-3-9-2-2-1v-3l12-2 1-1 25-2h18z" fill="#C11432"/>
<path transform="translate(892,668)" d="m0 0h6l-4 3-5 1v2l2 1-3 1v2l8 1 9 4 2 10h2l-1 7-2 5 1 4v7l4 2-1 13-2 6h-2l-1 7 1 4-2 5 3 1-1 6h2l1 7-1 14 1 3v8l1 9v14l1 4v4l-2 10h2l1 11-2 7 1 5 1 3-1 6-1 3v9l-1 5 1 6-2 3-1 6 2 2 1 8-1 2 3 1 1 3-1 3h-2l-2 5-4 2v2l-5 5-4 6-3 3h-2v2h-2v2l3-1v3l7-4 4 1-17 8-20 6-17 3h-31v-2l-16-3-7-2-3-1 1-5 3-1 2-6 5-1-1-8-2-2-2-4 1-4v-10h-2v2h-2l-1-4 2-11-1-9 1-6-1-18v-13l-2-8-1-21v-20l-1-9 1-5-4-5v-3l5-5 1-6-1-7-1-1-1-8v-9h2v-7l1-3-3-4v-3l-1 2h-2l1-8v-17l-1-2 1-5-3-5-14-7v-2l6-3 10-1 37-1 14-3 36-4z" fill="#C11432"/>
<path transform="translate(361,107)" d="m0 0 13 1v1l-22 2-10 2-16 5-12 6-17 10-4 7-4 3h-2l-1 3h-2v3h-2l-2 6-1 2h-2l1 2 1 13 4 10 1 9v9l-1 3 1 9-1 2 1 8-1 16v42l1 2-2 10v30l-1 7-1 76v27l1 61 1 5v30l-1 16v13l2 5 1 13 2 5 1 13 1 2-1 10-5 4 3 3v2h2v2l9 2 12 4 11 3-3 2-26-6-24-8-28-12-4-2v-368l4-20 6-18 11-21 10-14 13-14 11-9 13-9 17-9 17-6 18-4z" fill="#152E73"/>
<path transform="translate(233,659)" d="m0 0 8 1 41 8 40 5 10 1 1 2-23 1h-9l-9 2-5 1 1 8-2 2-1 13 1 2-1 17-1 5 1 5-1 8 1 8v15l-1 2v32l-1 4v6l1 7v27l1 3v11l-1 5 2 18-1 5 1 25 3 11 2 8-1 7-6 11v4l9 2 11 2 30 2 1 1 18 1 51 1v1h-82l-89-1z" fill="#152E73"/>
<path transform="translate(799,435)" d="m0 0h31l1 2-28 1-7 2h-9l-1 2-8 2-6 3-4 1-4 3 6 1 8 2v-2l5 1 7 3 1 6 1 30 1 8-1 9 4 2 5 15v11l-3 16h-3l1-5-2 1 3 16 1 9-4 2-1 3 4 1 1 6-1 3h-3l2 3h2l4 10h2l-1 7h-2v2l-5 2-2-1-4 3h-2v-2l-14 3-11 1v2l7 2 7 3h2l1 2 15 2 35 2v1h-32l-20-3-18-6-14-7-10-8-7-6-9-12-7-14-5-17-2-12v-26l4-20 6-15 9-15 11-11 14-10 18-8 22-5z" fill="#942533"/>
<path transform="translate(1088,549)" d="m0 0h88l10 3 9 6 7 8 5 10 1 4v14l-4 11-6 8-7 6-8 4-4 1-91 1-1-1v-74z" fill="#299641"/>
<path transform="translate(1088,438)" d="m0 0h75l14 3 10 6 7 9 4 11v12l-4 11-7 8-5 4-8 4-4 1-82 1-1-1v-68z" fill="#289541"/>
<path transform="translate(361,107)" d="m0 0 13 1v1l-22 2-10 2-16 5-12 6-15 9-2-1 5-5 17-9 17-6 18-4z" fill="#153D72"/>
<path transform="translate(932,598)" d="m0 0h5v52h-1v-50l-4 2-3-1z" fill="#BF1632"/>
<path transform="translate(315,120)" d="m0 0 2 1-4 4-11 6-5 2 3-5z" fill="#153A71"/>
<path transform="translate(336,112)" d="m0 0 2 1-12 5-6 3-4 1 1-3 15-6z" fill="#16406F"/>
<path transform="translate(898,613)" d="m0 0h5l-2 2-11 4-3-1 5-4z" fill="#BA1632"/>
</svg>
