<svg width="26" height="21" viewBox="0 0 26 21" fill="none" xmlns="http://www.w3.org/2000/svg">
<g clip-path="url(#clip0_20618_613)">
<path d="M5.13659 8.001C3.69522 8.16492 2.48938 8.74645 1.51131 9.78364C-1.25487 12.7172 -0.0558357 17.6407 3.74524 18.9701C4.32218 19.1721 4.91222 19.2916 5.52461 19.2921C6.86788 19.293 8.21115 19.293 9.55442 19.2979C9.92933 19.2994 10.2178 19.1564 10.38 18.811C10.6592 18.2158 10.2445 17.6016 9.55151 17.5919C8.83957 17.5821 8.12714 17.5899 7.41519 17.5894C6.78387 17.5889 6.15254 17.5972 5.5217 17.5841C3.5403 17.5431 1.93527 16.0556 1.72451 14.0744C1.49383 11.9063 2.94151 10.0066 5.06617 9.70266C5.34493 9.66265 5.63097 9.67729 5.91409 9.66607C6.53473 9.64168 6.88536 9.22114 6.82466 8.60351C6.62846 6.62084 7.23065 4.90503 8.6356 3.51267C11.9127 0.263513 17.4096 1.5905 18.9 5.97393C19.0306 6.35788 19.1161 6.75451 19.1666 7.15846C19.2273 7.64291 19.4969 7.90391 19.9825 7.97416C22.0285 8.26932 23.4208 9.37725 24.0817 11.3565C24.9588 13.9822 23.2188 16.9581 20.5215 17.4875C20.1287 17.5645 19.7368 17.5885 19.3405 17.5889C18.3857 17.5894 17.4305 17.587 16.4757 17.5899C16.0008 17.5914 15.689 17.809 15.5676 18.2095C15.4102 18.7291 15.7633 19.2672 16.3033 19.2852C16.9579 19.3072 17.614 19.3004 18.2697 19.295C18.9325 19.2896 19.5979 19.3374 20.2578 19.2506C22.3641 18.973 23.9832 17.9192 25.0802 16.1C27.2738 12.4625 25.3619 7.65754 21.2728 6.55302C20.8076 6.42716 20.691 6.1881 20.574 5.78269C19.7834 3.0531 18.0215 1.22704 15.333 0.369867C11.8359 -0.745385 8.07566 0.729421 6.20984 3.8893C5.5149 5.06602 5.18418 6.35154 5.13707 7.71462C5.13416 7.80293 5.13707 7.89172 5.13707 8.00148L5.13659 8.001Z" fill="black"/>
<path d="M12.1442 11.8741C12.1442 12.037 12.1442 12.1316 12.1442 12.2268C12.1442 14.8281 12.1461 17.4289 12.1427 20.0301C12.1422 20.4307 12.2656 20.7605 12.6458 20.9229C13.2971 21.201 13.8449 20.6809 13.841 20.1204C13.8245 17.4869 13.8337 14.8529 13.8337 12.2195C13.8337 12.1238 13.8337 12.0282 13.8337 11.9311C13.9395 11.917 13.976 11.9921 14.0255 12.0375C14.5179 12.4844 15.0055 12.9356 15.4994 13.3806C15.8029 13.6538 16.1973 13.6982 16.5343 13.5103C16.8281 13.3464 16.9913 12.9961 16.9384 12.6385C16.9073 12.4288 16.8019 12.2604 16.6475 12.1199C15.6301 11.1911 14.6141 10.2602 13.5943 9.33328C13.2169 8.99031 12.7663 8.99324 12.3938 9.3323C11.3817 10.2548 10.3701 11.1784 9.35903 12.1024C9.07736 12.3595 8.96323 12.6746 9.0759 13.0469C9.18274 13.4006 9.4615 13.5557 9.80193 13.6065C10.0739 13.6469 10.3089 13.5499 10.5105 13.364C10.9335 12.9737 11.3584 12.5858 11.7833 12.197C11.8839 12.1053 11.9868 12.0155 12.1442 11.875V11.8741Z" fill="black"/>
</g>
<defs>
<clipPath id="clip0_20618_613">
<rect width="26" height="21" fill="white" transform="matrix(-1 0 0 1 26 0)"/>
</clipPath>
</defs>
</svg>
