<svg width="47" height="48" viewBox="0 0 47 48" fill="none" xmlns="http://www.w3.org/2000/svg">
<path d="M23.1817 33.3257L23.5 33.5882L23.8182 33.3257C30.2586 28.0116 33.7916 22.8615 33.7916 18.3C33.7916 14.3995 32.221 11.684 30.1322 9.95256C28.0604 8.23522 25.4974 7.5 23.5 7.5C21.5025 7.5 18.9395 8.23522 16.8677 9.95256C14.7789 11.684 13.2083 14.3995 13.2083 18.3C13.2083 20.5808 14.1006 23.0118 15.7797 25.5229C17.46 28.0357 19.946 30.6558 23.1817 33.3257ZM10.2916 18.3C10.2916 9.23718 17.3294 4.5 23.5 4.5C29.6705 4.5 36.7083 9.23718 36.7083 18.3C36.7083 24.2249 32.414 30.5985 23.5 37.3732C14.5859 30.5985 10.2916 24.2249 10.2916 18.3Z" fill="black" stroke="black"/>
<path d="M23.5 14C21.3458 14 19.5833 15.8 19.5833 18C19.5833 20.2 21.3458 22 23.5 22C24.5387 22 25.5349 21.5786 26.2695 20.8284C27.004 20.0783 27.4166 19.0609 27.4166 18C27.4166 16.9391 27.004 15.9217 26.2695 15.1716C25.5349 14.4214 24.5387 14 23.5 14ZM9.79163 40H37.2083V44H9.79163V40Z" fill="black"/>
</svg>
