<?xml version="1.0" encoding="UTF-8"?>
<svg version="1.1" viewBox="0 0 2048 1365" width="600" height="400" xmlns="http://www.w3.org/2000/svg">
<path transform="translate(0)" d="m0 0h2048v1365h-2048z" fill="transparent"/>
<path transform="translate(214,567)" d="m0 0h17l15 3 13 5 11 7 12 11 11 12 12 12 10 9 55 55 9 6 11 4 11 1 16-4 11-7 13-13h2l2-4 4-4h2v-2h2l1-3 8-7 67-67 10-6 12-5 13-2 42-1 77 77 10 15 7 16 4 16 1 8v13l-3 16-6 17-8 13-9 11-73 73h-46l-15-4-13-7-10-9-90-90-10-7-8-4-12-2h-8l-13 3-10 6-4 2v2h-2l-2 4-72 72h-2v2l-8 7-10 10-14 9-11 4-7 2h-55l-78-78-7-10-8-16-5-17-1-7v-18l2-11 6-18 6-11 9-12 14-15 12-12 8-7 6-7h2l2-4h2v-2l6-5 5-5 11-12 8-7z" fill="#01BEAE"/>
<path transform="translate(386,396)" d="m0 0h18l18 4 13 5 14 8 10 8 46 46 8 7 3 3v2l3 1 41 41 7 8 12 11v2l-25 2-17 4-17 8-9 7-34 34-8 7-17 17-8 7-9 9-7 8-17 17-8 4h-10l-9-7-92-92-13-10-19-9-17-4-6-1-25-1 1-4 12-11 107-107 14-10 16-8 13-4z" fill="#01BEAE"/>
<path transform="translate(394,744)" d="m0 0h9l6 3 13 12 86 86 13 9 17 8 17 4 17 1h6l1 2-38 38-8 7-38 38-7 8-16 16h-2l-1 3-8 7-10 9-15 9-15 6-14 4h-24l-15-4-13-5-14-8-13-12-43-43-8-7-65-65v-2l24-1 17-3 16-6 10-5 10-8h2v-2l8-7 89-89z" fill="#01BEAE"/>
<path transform="translate(975,448)" d="m0 0h134l18 3 17 5 18 8 16 10 11 9 10 9 9 10 10 15 11 23 5 16 3 19 1 13v88l-2 19-6 23-8 18-8 14-10 13-11 12-11 9-15 10-16 8-16 6-18 4-19 2h-162l-9-3-5-4-3-7 1-9 6-8 3-2 157-1 23-1 15-3 16-6 12-6 12-9 10-9 8-9 11-18 6-14 4-18 1-11v-95l-3-19-4-12-8-16-9-13-13-14-16-11-14-7-15-5-10-2-21-1h-115l-18 2-18 6-18 10-14 11-10 10-9 12-8 16-5 15-2 9-1 11-1 392-3 5-8 5h-9l-8-5-3-3-1-3v-400l3-18 7-21 11-21 10-14 11-12 11-10 16-11 16-8 13-5 17-4z" fill="#96999E"/>
<path transform="translate(1444,447)" d="m0 0h44l22 1 18 4 16 6 15 9 13 11 75 75 2 1v2l4 2 3 3v2l4 2 6 6v2l3 1 4 4v2l3 1v2l4 2 7 7 9 5h11l9-6 10-9 107-107 13-10 17-9 18-6 11-2h60l8 7 2 4v10l-4 6-5 4-2 1-10 1-47 1-15 4-16 8-11 9-115 115-14 9-8 2v2l9 3 10 6 12 11 106 106 10 8 15 8 13 4 17 2 45 1 5 3 5 8v10l-4 6-5 4-11 2h-36l-19-2-15-4-13-5-15-9-11-9-11-11-8-7-84-84-8-7-10-9-9-4-7 1-8 4-60 60-8 7-52 52-17 12-17 8-19 5-7 1-19 1h-45l-8-4-4-5-2-9 2-7 5-6 4-2 61-1 16-3 14-6 13-9 8-8 8-7 103-103 11-8 11-5-15-8-10-9-8-7-36-36-7-8-18-18-8-7-35-35-10-8-14-8-13-4-6-1-63-1-6-3-5-6-1-2v-11l4-6 5-4z" fill="#96999E"/>
<path transform="translate(1246,448)" d="m0 0h64l14 3 16 8 10 8 9 11 7 14 3 9 1 6v294l-2 6-8 7-3 1h-7l-8-4-4-5-1-11v-175l-1-110-2-9-7-10-8-6-7-3-8-1h-52l-9-3-5-6-2-6 1-9 7-8z" fill="#96999E"/>
<path transform="translate(1349,351)" d="m0 0h8l6 4 22 22 4 6 1 7-5 9-21 21-9 5h-6l-6-4-14-13-7-8-6-9 1-8 4-6 10-10 4-5 8-7z" fill="#01BEAE"/>
</svg>
