<svg width="24" height="25" viewBox="0 0 24 25" fill="none" xmlns="http://www.w3.org/2000/svg">
<path d="M17 21.4004V19.4004C17 18.3395 16.5786 17.3221 15.8284 16.572C15.0783 15.8218 14.0609 15.4004 13 15.4004H5C3.93913 15.4004 2.92172 15.8218 2.17157 16.572C1.42143 17.3221 1 18.3395 1 19.4004V21.4004" stroke="#2E2E2E" stroke-width="2" stroke-linecap="round" stroke-linejoin="round"/>
<path d="M9 11.4004C11.2091 11.4004 13 9.60953 13 7.40039C13 5.19125 11.2091 3.40039 9 3.40039C6.79086 3.40039 5 5.19125 5 7.40039C5 9.60953 6.79086 11.4004 9 11.4004Z" stroke="#2E2E2E" stroke-width="2" stroke-linecap="round" stroke-linejoin="round"/>
<path d="M23 21.4003V19.4003C22.9993 18.514 22.7044 17.653 22.1614 16.9526C21.6184 16.2521 20.8581 15.7518 20 15.5303" stroke="#2E2E2E" stroke-width="2" stroke-linecap="round" stroke-linejoin="round"/>
<path d="M16 3.53027C16.8604 3.75057 17.623 4.25097 18.1676 4.95258C18.7122 5.65419 19.0078 6.5171 19.0078 7.40527C19.0078 8.29344 18.7122 9.15635 18.1676 9.85796C17.623 10.5596 16.8604 11.06 16 11.2803" stroke="#2E2E2E" stroke-width="2" stroke-linecap="round" stroke-linejoin="round"/>
</svg>
